<mxfile host="app.diagrams.net" modified="2023-06-20T12:25:28.595Z" agent="Mozilla/5.0 (Windows NT 10.0; Win64; x64) AppleWebKit/537.36 (KHTML, like Gecko) Chrome/114.0.0.0 Safari/537.36" etag="M2GFgVIs5aIkBPzq4nJb" version="21.3.7" type="device">
  <diagram name="Page-1" id="505sKMJ3fzRqQ5gk07cj">
    <mxGraphModel dx="842" dy="452" grid="1" gridSize="10" guides="1" tooltips="1" connect="1" arrows="1" fold="1" page="1" pageScale="1" pageWidth="850" pageHeight="1100" math="1" shadow="0">
      <root>
        <mxCell id="0" />
        <mxCell id="1" parent="0" />
        <mxCell id="tEOLsJvbwB0zy-CFl1Jq-22" style="edgeStyle=orthogonalEdgeStyle;rounded=0;orthogonalLoop=1;jettySize=auto;html=1;entryX=0.5;entryY=0;entryDx=0;entryDy=0;" edge="1" parent="1" source="tEOLsJvbwB0zy-CFl1Jq-1" target="tEOLsJvbwB0zy-CFl1Jq-4">
          <mxGeometry relative="1" as="geometry" />
        </mxCell>
        <mxCell id="tEOLsJvbwB0zy-CFl1Jq-1" value="" style="ellipse;shape=cloud;whiteSpace=wrap;html=1;" vertex="1" parent="1">
          <mxGeometry x="100" y="40" width="120" height="80" as="geometry" />
        </mxCell>
        <mxCell id="tEOLsJvbwB0zy-CFl1Jq-4" value="" style="ellipse;whiteSpace=wrap;html=1;aspect=fixed;" vertex="1" parent="1">
          <mxGeometry x="130" y="180" width="60" height="60" as="geometry" />
        </mxCell>
        <mxCell id="tEOLsJvbwB0zy-CFl1Jq-5" value="" style="shape=image;html=1;verticalAlign=top;verticalLabelPosition=bottom;labelBackgroundColor=#ffffff;imageAspect=0;aspect=fixed;image=https://cdn0.iconfinder.com/data/icons/octicons/1024/x-128.png" vertex="1" parent="1">
          <mxGeometry x="150" y="190" width="10" height="10" as="geometry" />
        </mxCell>
        <mxCell id="tEOLsJvbwB0zy-CFl1Jq-6" value="" style="shape=image;html=1;verticalAlign=top;verticalLabelPosition=bottom;labelBackgroundColor=#ffffff;imageAspect=0;aspect=fixed;image=https://cdn0.iconfinder.com/data/icons/octicons/1024/x-128.png" vertex="1" parent="1">
          <mxGeometry x="166" y="198" width="10" height="10" as="geometry" />
        </mxCell>
        <mxCell id="tEOLsJvbwB0zy-CFl1Jq-7" value="" style="shape=image;html=1;verticalAlign=top;verticalLabelPosition=bottom;labelBackgroundColor=#ffffff;imageAspect=0;aspect=fixed;image=https://cdn0.iconfinder.com/data/icons/octicons/1024/x-128.png" vertex="1" parent="1">
          <mxGeometry x="173" y="211" width="10" height="10" as="geometry" />
        </mxCell>
        <mxCell id="tEOLsJvbwB0zy-CFl1Jq-8" value="" style="shape=image;html=1;verticalAlign=top;verticalLabelPosition=bottom;labelBackgroundColor=#ffffff;imageAspect=0;aspect=fixed;image=https://cdn0.iconfinder.com/data/icons/octicons/1024/x-128.png" vertex="1" parent="1">
          <mxGeometry x="153" y="201" width="10" height="10" as="geometry" />
        </mxCell>
        <mxCell id="tEOLsJvbwB0zy-CFl1Jq-9" value="" style="shape=image;html=1;verticalAlign=top;verticalLabelPosition=bottom;labelBackgroundColor=#ffffff;imageAspect=0;aspect=fixed;image=https://cdn0.iconfinder.com/data/icons/octicons/1024/x-128.png" vertex="1" parent="1">
          <mxGeometry x="160" y="212" width="10" height="10" as="geometry" />
        </mxCell>
        <mxCell id="tEOLsJvbwB0zy-CFl1Jq-10" value="" style="shape=image;html=1;verticalAlign=top;verticalLabelPosition=bottom;labelBackgroundColor=#ffffff;imageAspect=0;aspect=fixed;image=https://cdn0.iconfinder.com/data/icons/octicons/1024/x-128.png" vertex="1" parent="1">
          <mxGeometry x="147" y="222" width="10" height="10" as="geometry" />
        </mxCell>
        <mxCell id="tEOLsJvbwB0zy-CFl1Jq-11" value="" style="shape=image;html=1;verticalAlign=top;verticalLabelPosition=bottom;labelBackgroundColor=#ffffff;imageAspect=0;aspect=fixed;image=https://cdn0.iconfinder.com/data/icons/octicons/1024/x-128.png" vertex="1" parent="1">
          <mxGeometry x="162" y="227" width="10" height="10" as="geometry" />
        </mxCell>
        <mxCell id="tEOLsJvbwB0zy-CFl1Jq-12" value="" style="shape=image;html=1;verticalAlign=top;verticalLabelPosition=bottom;labelBackgroundColor=#ffffff;imageAspect=0;aspect=fixed;image=https://cdn0.iconfinder.com/data/icons/octicons/1024/x-128.png" vertex="1" parent="1">
          <mxGeometry x="157" y="220" width="10" height="10" as="geometry" />
        </mxCell>
        <mxCell id="tEOLsJvbwB0zy-CFl1Jq-13" value="" style="shape=image;html=1;verticalAlign=top;verticalLabelPosition=bottom;labelBackgroundColor=#ffffff;imageAspect=0;aspect=fixed;image=https://cdn0.iconfinder.com/data/icons/octicons/1024/x-128.png" vertex="1" parent="1">
          <mxGeometry x="143" y="210" width="10" height="10" as="geometry" />
        </mxCell>
        <mxCell id="tEOLsJvbwB0zy-CFl1Jq-14" value="" style="shape=image;html=1;verticalAlign=top;verticalLabelPosition=bottom;labelBackgroundColor=#ffffff;imageAspect=0;aspect=fixed;image=https://cdn0.iconfinder.com/data/icons/octicons/1024/x-128.png" vertex="1" parent="1">
          <mxGeometry x="137" y="199" width="10" height="10" as="geometry" />
        </mxCell>
        <mxCell id="tEOLsJvbwB0zy-CFl1Jq-15" value="" style="shape=image;html=1;verticalAlign=top;verticalLabelPosition=bottom;labelBackgroundColor=#ffffff;imageAspect=0;aspect=fixed;image=https://cdn0.iconfinder.com/data/icons/octicons/1024/x-128.png" vertex="1" parent="1">
          <mxGeometry x="160" y="184" width="10" height="10" as="geometry" />
        </mxCell>
        <mxCell id="tEOLsJvbwB0zy-CFl1Jq-16" value="" style="shape=image;html=1;verticalAlign=top;verticalLabelPosition=bottom;labelBackgroundColor=#ffffff;imageAspect=0;aspect=fixed;image=https://cdn0.iconfinder.com/data/icons/octicons/1024/x-128.png" vertex="1" parent="1">
          <mxGeometry x="178" y="202" width="10" height="10" as="geometry" />
        </mxCell>
        <mxCell id="tEOLsJvbwB0zy-CFl1Jq-17" value="" style="shape=image;html=1;verticalAlign=top;verticalLabelPosition=bottom;labelBackgroundColor=#ffffff;imageAspect=0;aspect=fixed;image=https://cdn0.iconfinder.com/data/icons/octicons/1024/x-128.png" vertex="1" parent="1">
          <mxGeometry x="173" y="221" width="10" height="10" as="geometry" />
        </mxCell>
        <mxCell id="tEOLsJvbwB0zy-CFl1Jq-18" value="" style="shape=image;html=1;verticalAlign=top;verticalLabelPosition=bottom;labelBackgroundColor=#ffffff;imageAspect=0;aspect=fixed;image=https://cdn0.iconfinder.com/data/icons/octicons/1024/x-128.png" vertex="1" parent="1">
          <mxGeometry x="134" y="217" width="10" height="10" as="geometry" />
        </mxCell>
        <mxCell id="tEOLsJvbwB0zy-CFl1Jq-19" value="" style="shape=image;html=1;verticalAlign=top;verticalLabelPosition=bottom;labelBackgroundColor=#ffffff;imageAspect=0;aspect=fixed;image=https://cdn0.iconfinder.com/data/icons/octicons/1024/x-128.png" vertex="1" parent="1">
          <mxGeometry x="141" y="187" width="10" height="10" as="geometry" />
        </mxCell>
        <mxCell id="tEOLsJvbwB0zy-CFl1Jq-20" value="Population" style="text;html=1;strokeColor=none;fillColor=none;align=left;verticalAlign=middle;whiteSpace=wrap;rounded=0;" vertex="1" parent="1">
          <mxGeometry x="134" y="65" width="60" height="30" as="geometry" />
        </mxCell>
        <mxCell id="tEOLsJvbwB0zy-CFl1Jq-21" value="Cross sectional data" style="text;html=1;strokeColor=none;fillColor=none;align=center;verticalAlign=middle;whiteSpace=wrap;rounded=0;" vertex="1" parent="1">
          <mxGeometry x="91" y="10" width="128" height="30" as="geometry" />
        </mxCell>
        <mxCell id="tEOLsJvbwB0zy-CFl1Jq-23" value="Random sampling" style="text;html=1;strokeColor=none;fillColor=none;align=left;verticalAlign=middle;whiteSpace=wrap;rounded=0;" vertex="1" parent="1">
          <mxGeometry x="166" y="130" width="60" height="30" as="geometry" />
        </mxCell>
        <mxCell id="tEOLsJvbwB0zy-CFl1Jq-24" value="" style="endArrow=none;html=1;rounded=0;" edge="1" parent="1">
          <mxGeometry width="50" height="50" relative="1" as="geometry">
            <mxPoint x="250" y="260" as="sourcePoint" />
            <mxPoint x="250" y="10" as="targetPoint" />
          </mxGeometry>
        </mxCell>
        <mxCell id="tEOLsJvbwB0zy-CFl1Jq-25" value="Time series data" style="text;html=1;strokeColor=none;fillColor=none;align=center;verticalAlign=middle;whiteSpace=wrap;rounded=0;" vertex="1" parent="1">
          <mxGeometry x="263" y="10" width="128" height="30" as="geometry" />
        </mxCell>
        <mxCell id="tEOLsJvbwB0zy-CFl1Jq-27" value="Data generating process" style="rounded=0;whiteSpace=wrap;html=1;" vertex="1" parent="1">
          <mxGeometry x="274" y="50" width="100" height="50" as="geometry" />
        </mxCell>
        <mxCell id="tEOLsJvbwB0zy-CFl1Jq-28" value="" style="endArrow=none;html=1;rounded=0;entryX=0.5;entryY=1;entryDx=0;entryDy=0;" edge="1" parent="1" target="tEOLsJvbwB0zy-CFl1Jq-27">
          <mxGeometry width="50" height="50" relative="1" as="geometry">
            <mxPoint x="320" y="240" as="sourcePoint" />
            <mxPoint x="420" y="70" as="targetPoint" />
          </mxGeometry>
        </mxCell>
        <mxCell id="tEOLsJvbwB0zy-CFl1Jq-29" value="\(t\)" style="text;html=1;align=center;verticalAlign=middle;resizable=0;points=[];autosize=1;strokeColor=none;fillColor=none;fontSize=14;" vertex="1" parent="1">
          <mxGeometry x="300" y="240" width="40" height="30" as="geometry" />
        </mxCell>
        <mxCell id="tEOLsJvbwB0zy-CFl1Jq-30" value="" style="endArrow=none;html=1;rounded=0;" edge="1" parent="1">
          <mxGeometry width="50" height="50" relative="1" as="geometry">
            <mxPoint x="323" y="130" as="sourcePoint" />
            <mxPoint x="350" y="130" as="targetPoint" />
          </mxGeometry>
        </mxCell>
        <mxCell id="tEOLsJvbwB0zy-CFl1Jq-31" value="" style="endArrow=none;html=1;rounded=0;" edge="1" parent="1">
          <mxGeometry width="50" height="50" relative="1" as="geometry">
            <mxPoint x="323" y="150" as="sourcePoint" />
            <mxPoint x="350" y="150" as="targetPoint" />
          </mxGeometry>
        </mxCell>
        <mxCell id="tEOLsJvbwB0zy-CFl1Jq-34" value="" style="endArrow=none;html=1;rounded=0;" edge="1" parent="1">
          <mxGeometry width="50" height="50" relative="1" as="geometry">
            <mxPoint x="323" y="210" as="sourcePoint" />
            <mxPoint x="350" y="210" as="targetPoint" />
          </mxGeometry>
        </mxCell>
        <mxCell id="tEOLsJvbwB0zy-CFl1Jq-36" value="\(t_1\)" style="text;html=1;align=center;verticalAlign=middle;resizable=0;points=[];autosize=1;strokeColor=none;fillColor=none;fontSize=14;" vertex="1" parent="1">
          <mxGeometry x="331" y="114" width="60" height="30" as="geometry" />
        </mxCell>
        <mxCell id="tEOLsJvbwB0zy-CFl1Jq-37" value="\(t_2\)" style="text;html=1;align=center;verticalAlign=middle;resizable=0;points=[];autosize=1;strokeColor=none;fillColor=none;fontSize=14;" vertex="1" parent="1">
          <mxGeometry x="331" y="133" width="60" height="30" as="geometry" />
        </mxCell>
        <mxCell id="tEOLsJvbwB0zy-CFl1Jq-38" value="\(t_T\)" style="text;html=1;align=center;verticalAlign=middle;resizable=0;points=[];autosize=1;strokeColor=none;fillColor=none;fontSize=14;" vertex="1" parent="1">
          <mxGeometry x="331" y="195" width="60" height="30" as="geometry" />
        </mxCell>
        <mxCell id="tEOLsJvbwB0zy-CFl1Jq-39" value="" style="ellipse;whiteSpace=wrap;html=1;labelBackgroundColor=#030303;labelBorderColor=none;fillColor=#030303;strokeColor=none;" vertex="1" parent="1">
          <mxGeometry x="352" y="166" width="5" height="5" as="geometry" />
        </mxCell>
        <mxCell id="tEOLsJvbwB0zy-CFl1Jq-41" value="" style="ellipse;whiteSpace=wrap;html=1;labelBackgroundColor=#030303;labelBorderColor=none;fillColor=#030303;strokeColor=none;" vertex="1" parent="1">
          <mxGeometry x="352" y="175" width="5" height="5" as="geometry" />
        </mxCell>
        <mxCell id="tEOLsJvbwB0zy-CFl1Jq-42" value="" style="ellipse;whiteSpace=wrap;html=1;labelBackgroundColor=#030303;labelBorderColor=none;fillColor=#030303;strokeColor=none;" vertex="1" parent="1">
          <mxGeometry x="352" y="184" width="5" height="5" as="geometry" />
        </mxCell>
      </root>
    </mxGraphModel>
  </diagram>
</mxfile>
